HIERARCHY
ROOT rot
{
	OFFSET 5.900000 0.000000 0.000000 
	CHANNELS 0 Xposition Yposition Zposition
	JOINT right_decoded
	{
		OFFSET 1.100008 0.000000 0.000000 
		CHANNELS 6 Xposition Yposition Zposition Zrotation Yrotation Xrotation
		JOINT joint_1
		{
			OFFSET 1.363060 -1.794630 0.839290 
			CHANNELS 3 Zrotation Yrotation Xrotation
			JOINT joint_2
			{
				OFFSET 2.448110 -6.726130 0.000000 
				CHANNELS 3 Zrotation Yrotation Xrotation
				JOINT joint_3
				{
					OFFSET 2.562200 -7.039590 0.000000 
					CHANNELS 3 Zrotation Yrotation Xrotation
					JOINT joint_4
					{
						OFFSET 0.157640 -0.433110 2.322550 
						CHANNELS 3 Zrotation Yrotation Xrotation
						End Site
						{
							OFFSET 0.000000 0.000000 0.000000 
						}
					}
				}
			}
		}
		JOINT joint_5
		{
			OFFSET -1.305520 -1.794630 0.839290 
			CHANNELS 3 Zrotation Yrotation Xrotation
			JOINT joint_6
			{
				OFFSET -2.542530 -6.985550 0.000000 
				CHANNELS 3 Zrotation Yrotation Xrotation
				JOINT joint_7
				{
					OFFSET -2.568260 -7.056230 0.000000 
					CHANNELS 3 Zrotation Yrotation Xrotation
					JOINT joint_8
					{
						OFFSET -0.164730 -0.452590 2.363150 
						CHANNELS 3 Zrotation Yrotation Xrotation
						End Site
						{
							OFFSET 0.000000 0.000000 0.000000 
						}
					}
				}
			}
		}
		JOINT joint_9
		{
			OFFSET 0.028270 2.035590 -0.193380 
			CHANNELS 3 Zrotation Yrotation Xrotation
			JOINT joint_10
			{
				OFFSET 0.056720 2.048850 -0.042750 
				CHANNELS 3 Zrotation Yrotation Xrotation
				JOINT joint_11
				{
					OFFSET -0.054170 1.746240 0.172020 
					CHANNELS 3 Zrotation Yrotation Xrotation
					JOINT joint_12
					{
						OFFSET 0.104070 1.761360 -0.123970 
						CHANNELS 3 Zrotation Yrotation Xrotation
						End Site
						{
							OFFSET 0.000000 0.000000 0.000000 
						}
					}
				}
				JOINT joint_13
				{
					OFFSET 3.362410 1.200890 -0.311210 
					CHANNELS 3 Zrotation Yrotation Xrotation
					JOINT joint_14
					{
						OFFSET 4.983000 -0.000000 -0.000000 
						CHANNELS 3 Zrotation Yrotation Xrotation
						JOINT joint_15
						{
							OFFSET 3.483560 -0.000000 -0.000000 
							CHANNELS 3 Zrotation Yrotation Xrotation
							JOINT joint_16
							{
								OFFSET 0.715260 -0.000000 -0.000000 
								CHANNELS 3 Zrotation Yrotation Xrotation
								End Site
								{
									OFFSET 0.000000 0.000000 0.000000 
								}
							}
						}
					}
				}
				JOINT joint_17
				{
					OFFSET -3.136600 1.374050 -0.404650 
					CHANNELS 3 Zrotation Yrotation Xrotation
					JOINT joint_18
					{
						OFFSET -5.241900 -0.000000 -0.000000 
						CHANNELS 3 Zrotation Yrotation Xrotation
						JOINT joint_19
						{
							OFFSET -3.444170 -0.000000 -0.000000 
							CHANNELS 3 Zrotation Yrotation Xrotation
							JOINT joint_20
							{
								OFFSET -0.622530 -0.000000 -0.000000 
								CHANNELS 3 Zrotation Yrotation Xrotation
								End Site
								{
									OFFSET 0.000000 0.000000 0.000000 
								}
							}
						}
					}
				}
			}
		}
	}
	JOINT original_left
	{
		OFFSET -13.400002 0.000000 0.000000 
		CHANNELS 6 Xposition Yposition Zposition Zrotation Yrotation Xrotation
		JOINT joint_1
		{
			OFFSET 1.363060 -1.794630 0.839290 
			CHANNELS 3 Zrotation Yrotation Xrotation
			JOINT joint_2
			{
				OFFSET 2.448110 -6.726130 0.000000 
				CHANNELS 3 Zrotation Yrotation Xrotation
				JOINT joint_3
				{
					OFFSET 2.562200 -7.039590 0.000000 
					CHANNELS 3 Zrotation Yrotation Xrotation
					JOINT joint_4
					{
						OFFSET 0.157640 -0.433110 2.322550 
						CHANNELS 3 Zrotation Yrotation Xrotation
						End Site
						{
							OFFSET 0.000000 0.000000 0.000000 
						}
					}
				}
			}
		}
		JOINT joint_5
		{
			OFFSET -1.305520 -1.794630 0.839290 
			CHANNELS 3 Zrotation Yrotation Xrotation
			JOINT joint_6
			{
				OFFSET -2.542530 -6.985550 0.000000 
				CHANNELS 3 Zrotation Yrotation Xrotation
				JOINT joint_7
				{
					OFFSET -2.568260 -7.056230 0.000000 
					CHANNELS 3 Zrotation Yrotation Xrotation
					JOINT joint_8
					{
						OFFSET -0.164730 -0.452590 2.363150 
						CHANNELS 3 Zrotation Yrotation Xrotation
						End Site
						{
							OFFSET 0.000000 0.000000 0.000000 
						}
					}
				}
			}
		}
		JOINT joint_9
		{
			OFFSET 0.028270 2.035590 -0.193380 
			CHANNELS 3 Zrotation Yrotation Xrotation
			JOINT joint_10
			{
				OFFSET 0.056720 2.048850 -0.042750 
				CHANNELS 3 Zrotation Yrotation Xrotation
				JOINT joint_11
				{
					OFFSET -0.054170 1.746240 0.172020 
					CHANNELS 3 Zrotation Yrotation Xrotation
					JOINT joint_12
					{
						OFFSET 0.104070 1.761360 -0.123970 
						CHANNELS 3 Zrotation Yrotation Xrotation
						End Site
						{
							OFFSET 0.000000 0.000000 0.000000 
						}
					}
				}
				JOINT joint_13
				{
					OFFSET 3.362410 1.200890 -0.311210 
					CHANNELS 3 Zrotation Yrotation Xrotation
					JOINT joint_14
					{
						OFFSET 4.983000 -0.000000 -0.000000 
						CHANNELS 3 Zrotation Yrotation Xrotation
						JOINT joint_15
						{
							OFFSET 3.483560 -0.000000 -0.000000 
							CHANNELS 3 Zrotation Yrotation Xrotation
							JOINT joint_16
							{
								OFFSET 0.715260 -0.000000 -0.000000 
								CHANNELS 3 Zrotation Yrotation Xrotation
								End Site
								{
									OFFSET 0.000000 0.000000 0.000000 
								}
							}
						}
					}
				}
				JOINT joint_17
				{
					OFFSET -3.136600 1.374050 -0.404650 
					CHANNELS 3 Zrotation Yrotation Xrotation
					JOINT joint_18
					{
						OFFSET -5.241900 -0.000000 -0.000000 
						CHANNELS 3 Zrotation Yrotation Xrotation
						JOINT joint_19
						{
							OFFSET -3.444170 -0.000000 -0.000000 
							CHANNELS 3 Zrotation Yrotation Xrotation
							JOINT joint_20
							{
								OFFSET -0.622530 -0.000000 -0.000000 
								CHANNELS 3 Zrotation Yrotation Xrotation
								End Site
								{
									OFFSET 0.000000 0.000000 0.000000 
								}
							}
						}
					}
				}
			}
		}
	}
}
MOTION
Frames: 4
Frame Time: 0.005000
0.086741 12.910301 0.341847 4.874411 4.306440 15.898994 -7.650302 -9.808708 -61.192867 15.438282 21.730482 76.106621 0.478414 -5.285975 -1.302810 -0.053696 -1.006139 -3.137067 0.102136 -12.849128 -31.235741 -18.788651 -20.128307 83.412643 -2.155812 9.662891 -18.688036 -2.601935 9.878780 -28.245691 0.559740 2.345901 -1.133730 0.847243 0.936431 -4.866607 7.455076 -8.637915 2.416987 0.148090 -3.453167 5.032104 -46.817852 -56.404121 39.020866 134.533875 -42.234776 -95.054932 1.000003 -0.667693 -8.394799 -7.068705 -0.063550 -0.035254 11.169435 47.368702 -31.528528 -71.754601 53.310795 -43.800961 -0.000503 1.096617 -18.835503 6.974849 -0.081172 -0.063100 0.086741 12.910301 0.341847 5.212056 6.122237 16.283566 -9.370706 -17.462498 -76.153175 13.668593 25.835676 75.402039 0.597278 -7.559185 -4.327422 0.033300 -1.178500 -3.240100 -3.094038 -18.200703 -31.802675 -20.755335 -19.960806 90.493912 -4.046822 10.654234 -26.386894 -4.512400 12.812700 -38.671398 1.004303 2.701410 -3.885510 0.582836 1.247857 -6.648019 8.964693 -9.267759 3.756446 -0.380500 -4.079900 5.473400 -75.934647 -63.142372 66.188721 143.349457 -28.263607 -107.796272 4.182149 -1.052559 -8.884229 -7.125000 0.000000 0.000000 4.034823 43.894009 -46.814838 -47.685623 49.255833 -17.543360 0.792608 -2.912286 -18.377945 7.125000 0.000000 0.000000 
0.079993 12.941209 0.343915 4.637764 3.615401 16.108801 -8.412963 -10.299940 -61.040112 15.110926 21.887959 75.944786 0.177572 -4.925911 -1.484043 -0.058222 -0.860126 -2.761346 -0.038841 -12.992806 -30.529606 -18.505745 -20.197166 83.480446 -2.440778 9.666415 -18.934673 -2.576174 9.844292 -28.093580 0.703131 2.298988 -0.997599 0.694437 1.100469 -5.218557 7.722239 -8.321697 2.467382 -0.024254 -3.345110 5.078912 -46.440071 -56.405510 37.931065 134.632751 -41.395275 -94.801361 1.293594 -0.663501 -7.739724 -7.058030 -0.060367 -0.030548 14.026189 47.128143 -28.676991 -76.768265 53.663162 -47.961151 -0.096176 1.208204 -20.594982 6.968760 -0.079318 -0.055180 0.079993 12.941209 0.343915 5.025169 5.824940 16.393717 -8.940730 -17.481565 -76.069092 13.607148 25.816931 75.206070 0.582182 -7.107037 -4.461761 0.036900 -1.240500 -3.410700 -2.750246 -17.972536 -32.014626 -20.634516 -19.991570 90.202316 -4.034357 10.670529 -26.236776 -4.469700 12.760500 -38.478500 1.056229 2.514564 -3.881809 0.656321 1.204961 -6.753734 8.910559 -8.812262 3.788434 -0.482800 -3.852600 5.465700 -75.985107 -63.167480 66.171837 143.460403 -28.150898 -107.861336 4.196440 -1.024133 -9.160159 -7.125000 0.000000 0.000000 7.530860 43.373623 -42.891914 -56.067196 52.706459 -23.413952 0.957813 -2.715942 -22.862989 7.125000 0.000000 0.000000 
0.078034 12.974948 0.346091 4.375460 2.851390 16.224726 -8.774144 -11.179574 -60.836166 14.982762 21.914431 75.360336 0.285168 -4.593563 -1.701881 -0.078189 -0.776545 -2.546535 -0.063468 -13.113546 -29.965834 -18.366732 -20.118120 83.260750 -2.471130 9.543618 -18.934715 -2.562273 9.780694 -27.941572 0.602972 2.207691 -1.039335 0.701241 0.642315 -5.282968 7.926448 -7.875759 2.319056 -0.204990 -3.211025 5.105538 -46.802147 -56.144756 37.904312 135.082092 -40.616184 -95.134460 1.379218 -0.681134 -7.615162 -7.064438 -0.076702 -0.046867 17.212297 46.315605 -24.972624 -82.135246 53.787167 -52.413376 -0.156443 1.136436 -22.657879 6.940524 -0.094765 -0.070457 0.078034 12.974948 0.346091 4.816209 5.416357 16.508373 -8.477248 -17.486364 -75.953697 13.550263 25.796286 75.016373 0.564909 -6.571748 -4.667829 0.042300 -1.328000 -3.651700 -2.411231 -17.687447 -32.255676 -20.494909 -20.029150 89.854477 -4.024843 10.717805 -26.073517 -4.431600 12.713600 -38.305500 1.111784 2.301595 -3.872846 0.778840 1.138775 -6.770847 8.843593 -8.294044 3.808648 -0.589000 -3.599800 5.453400 -75.998497 -63.313839 66.082069 143.557785 -28.023293 -107.923775 4.212284 -0.989221 -9.468058 -7.125000 0.000000 0.000000 10.914515 42.991646 -38.708145 -66.616417 55.015926 -31.300566 1.104247 -2.511070 -27.990528 7.125000 0.000000 0.000000 
0.080211 13.011298 0.348268 4.399773 2.294587 16.008816 -8.941491 -11.982313 -60.703812 14.654455 21.956066 74.602325 0.355033 -3.991715 -1.935952 -0.102268 -0.669633 -2.268383 0.325192 -13.217582 -29.795782 -18.473742 -20.094366 83.037216 -2.000672 9.613308 -18.912243 -2.545905 9.718827 -27.723921 0.650273 2.164952 -1.097453 0.771616 0.484211 -5.512366 7.933915 -7.553670 2.476057 -0.405224 -3.072650 5.216040 -47.126999 -55.906586 37.815586 135.979279 -39.930294 -95.529579 1.469146 -0.808626 -7.351676 -7.074900 -0.096929 -0.067864 20.418333 45.539101 -21.329561 -87.631340 53.822987 -57.276627 -0.040097 0.958101 -24.583460 6.909859 -0.113653 -0.089024 0.080211 13.011298 0.348268 4.581349 4.888886 16.634007 -7.983922 -17.458872 -75.811829 13.496951 25.771828 74.830177 0.545036 -5.967948 -4.936720 0.048900 -1.427500 -3.925800 -2.065930 -17.336790 -32.528614 -20.334740 -20.073278 89.449661 -4.018768 10.772352 -25.918140 -4.399800 12.674300 -38.160999 1.168906 2.068177 -3.861081 0.940402 1.044049 -6.652033 8.777472 -7.732083 3.813905 -0.692200 -3.330200 5.432900 -75.962646 -63.624821 65.931046 143.623398 -27.889736 -107.972939 4.228681 -0.949432 -9.806478 -7.125000 0.000000 0.000000 14.058352 42.844387 -34.054352 -78.711563 55.219463 -41.204582 1.206116 -2.304584 -33.212952 7.125000 0.000000 0.000000 
